<svg width="32" height="32" viewBox="0 0 32 32" fill="none" xmlns="http://www.w3.org/2000/svg">
  <rect width="32" height="32" rx="6" fill="#0A0A0A"/>
  
  <!-- 大齿轮 (黄色) -->
  <g transform="translate(8, 8)">
    <!-- 8个齿 -->
    <rect x="7" y="0" width="2" height="2.5" fill="#FFDD00"/>
    <rect x="12.5" y="1.5" width="2.5" height="2" transform="rotate(45 13.75 2.5)" fill="#FFDD00"/>
    <rect x="14.5" y="7" width="2.5" height="2" fill="#FFDD00"/>
    <rect x="12.5" y="12.5" width="2.5" height="2" transform="rotate(-45 13.75 13.5)" fill="#FFDD00"/>
    <rect x="7" y="14.5" width="2" height="2.5" fill="#FFDD00"/>
    <rect x="1" y="12.5" width="2.5" height="2" transform="rotate(45 2.25 13.5)" fill="#FFDD00"/>
    <rect x="-1" y="7" width="2.5" height="2" fill="#FFDD00"/>
    <rect x="1" y="1.5" width="2.5" height="2" transform="rotate(-45 2.25 2.5)" fill="#FFDD00"/>
    
    <!-- 齿轮主体 -->
    <circle cx="8" cy="8" r="5.5" fill="#FFDD00"/>
    <circle cx="8" cy="8" r="3" fill="#0A0A0A"/>
    <circle cx="8" cy="8" r="1.5" fill="#FFDD00" opacity="0.6"/>
  </g>
  
  <!-- 小齿轮 (绿色) -->
  <g transform="translate(18, 18)">
    <!-- 6个齿 -->
    <rect x="4.5" y="0" width="1.5" height="1.5" fill="#22C55E"/>
    <rect x="8.5" y="2" width="1.5" height="1.5" transform="rotate(60 9.25 2.75)" fill="#22C55E"/>
    <rect x="8.5" y="6.5" width="1.5" height="1.5" transform="rotate(-60 9.25 7.25)" fill="#22C55E"/>
    <rect x="4.5" y="9" width="1.5" height="1.5" fill="#22C55E"/>
    <rect x="0.5" y="6.5" width="1.5" height="1.5" transform="rotate(60 1.25 7.25)" fill="#22C55E"/>
    <rect x="0.5" y="2" width="1.5" height="1.5" transform="rotate(-60 1.25 2.75)" fill="#22C55E"/>
    
    <!-- 齿轮主体 -->
    <circle cx="5.5" cy="5.5" r="3.5" fill="#22C55E"/>
    <circle cx="5.5" cy="5.5" r="2" fill="#0A0A0A"/>
    <circle cx="5.5" cy="5.5" r="1" fill="#22C55E" opacity="0.6"/>
  </g>
  
  <!-- 发光效果 -->
  <circle cx="16" cy="16" r="8" fill="url(#glow)" opacity="0.15"/>
  
  <defs>
    <radialGradient id="glow">
      <stop offset="0%" stop-color="#FFDD00"/>
      <stop offset="100%" stop-color="#22C55E"/>
    </radialGradient>
  </defs>
</svg>

